<svg class="icon" width="200px" height="200.00px" viewBox="0 0 1024 1024" version="1.1" xmlns="http://www.w3.org/2000/svg">
  <path d="M484.5 609.65l125.66 76.73 41.88-279L484.5 609.65z m0 0" fill="#4F46E5" />
  <path d="M861.49 163.25c-195.47-188.33-502.65-188.33-698.12 0-188.49 195.3-188.49 502.21 0 697.51 188.49 188.33 502.65 188.33 691.14 0 195.47-195.31 195.47-502.21 6.98-697.51zM666.02 811.93L442.62 679.4v153.45h-76.8v-195.3l223.4-272.03L303 505.02l55.85 27.9-48.87 62.78-181.51-90.68 628.31-313.88-90.76 620.79z m0 0" fill="#4F46E5" />
</svg>
